<?xml version="1.0" encoding="utf-8"?>
<!-- Generator: Adobe Illustrator 22.0.1, SVG Export Plug-In . SVG Version: 6.00 Build 0)  -->
<svg version="1.1" id="Ebene_1" xmlns="http://www.w3.org/2000/svg" xmlns:xlink="http://www.w3.org/1999/xlink" x="0px" y="0px"
	 viewBox="0 0 695 304" style="enable-background:new 0 0 695 304;" xml:space="preserve">
<style type="text/css">
	.st0{fill:#5BC2E7;}
</style>
<g>
	<path class="st0" d="M243.7,302.5c-1.7,1-3.9,1.5-6.6,1.5c-2.3,0-4.3-0.5-6.2-1.5c-1.9-1-3.4-2.4-4.8-4.2c-1.3-1.8-2.3-4-3.1-6.5
		c-0.7-2.5-1.1-5.3-1.1-8.3c0-3,0.4-5.8,1.1-8.3c0.7-2.5,1.8-4.7,3.1-6.5c1.3-1.8,2.9-3.2,4.8-4.2c1.8-1,3.9-1.5,6.2-1.5
		c2.6,0,4.8,0.5,6.5,1.4c1.7,0.9,3.1,2.1,4.2,3.5l-4.7,6.4c-0.7-0.9-1.4-1.6-2.2-2.1c-0.8-0.5-1.9-0.8-3.1-0.8c-1.2,0-2.2,0.3-3,0.9
		c-0.9,0.6-1.6,1.5-2.2,2.6c-0.6,1.1-1.1,2.4-1.3,3.8c-0.3,1.5-0.4,3.1-0.4,4.7c0,1.7,0.1,3.3,0.4,4.7c0.3,1.5,0.7,2.7,1.3,3.8
		c0.6,1.1,1.3,2,2.2,2.6c0.9,0.6,1.9,0.9,3.1,0.9c1.2,0,2.2-0.3,3.1-0.9c0.9-0.6,1.6-1.3,2.1-2.1l4.9,6.1
		C246.8,300.2,245.4,301.5,243.7,302.5"/>
	<polygon class="st0" points="276.5,264.1 271.7,280.2 271.6,280.2 267,264.1 257.5,264.1 267.3,289 267.3,303 275.9,303 275.9,289 
		285.8,264.1 	"/>
	<path class="st0" d="M314.6,291.1c0-0.9-0.1-1.6-0.4-2.2c-0.3-0.6-0.6-1.1-1.1-1.5c-0.5-0.4-1-0.7-1.5-0.9
		c-0.6-0.2-1.1-0.3-1.7-0.3h-3.2v9.5h3.3c1.3,0,2.4-0.4,3.3-1.2C314.2,293.8,314.6,292.6,314.6,291.1 M313.9,275.5
		c0-1.5-0.4-2.6-1.3-3.2c-0.8-0.6-1.8-0.9-3-0.9h-3v8.4h3c1.1,0,2-0.3,2.9-1C313.5,278.2,313.9,277.1,313.9,275.5 M323,291.9
		c0,2.1-0.3,3.8-1,5.2c-0.7,1.4-1.6,2.5-2.7,3.4c-1.1,0.9-2.3,1.5-3.7,1.9c-1.4,0.4-2.8,0.6-4.1,0.6h-12.9v-38.8h11.7
		c1.2,0,2.5,0.1,3.8,0.4c1.4,0.3,2.6,0.7,3.7,1.5c1.1,0.7,2.1,1.7,2.8,3c0.8,1.3,1.1,3,1.1,5.1c0,2.3-0.5,4.1-1.4,5.5
		c-0.9,1.4-2.1,2.4-3.4,3v0.1c0.7,0.2,1.5,0.5,2.2,1c0.7,0.5,1.4,1.1,2,1.8c0.6,0.8,1.1,1.7,1.4,2.7
		C322.8,289.3,323,290.5,323,291.9"/>
	<polygon class="st0" points="337.2,264.1 337.2,303 356.7,303 356.7,295.1 345.6,295.1 345.6,286.7 355.2,286.7 355.2,279.5 
		345.6,279.5 345.6,271.9 356,271.9 356,264.1 	"/>
	<path class="st0" d="M388.5,276.3c0-1-0.1-1.8-0.4-2.4c-0.3-0.6-0.6-1.1-1.1-1.5c-0.4-0.4-0.9-0.6-1.5-0.7
		c-0.5-0.1-1.1-0.2-1.6-0.2h-2.7v9.8h2.6c1.2,0,2.3-0.4,3.3-1.2C388.1,279.3,388.5,278.1,388.5,276.3 M389.1,303l-5.2-15.5h-2.6V303
		h-8.5v-38.8h12.4c3.8,0,6.7,1,8.8,2.9c2.1,2,3.1,4.9,3.1,8.7c0,1.4-0.2,2.7-0.5,3.8c-0.3,1.1-0.8,2.1-1.3,2.9
		c-0.5,0.8-1.1,1.5-1.8,2c-0.7,0.5-1.3,0.9-1.9,1.1l6.6,17.3H389.1z"/>
	<path class="st0" d="M429.7,273.4c-0.7-0.8-1.4-1.4-2.3-1.8c-0.9-0.4-1.8-0.6-2.7-0.6c-1,0-1.9,0.3-2.7,0.9
		c-0.8,0.6-1.2,1.6-1.2,3.1c0,1.2,0.4,2.1,1.2,2.8c0.8,0.7,2,1.4,3.6,2.2c0.9,0.4,1.8,1,2.8,1.6c1,0.6,1.9,1.3,2.7,2.2
		c0.8,0.9,1.5,1.9,2,3.2c0.5,1.2,0.8,2.7,0.8,4.4c0,2.1-0.3,3.9-1,5.5c-0.7,1.6-1.6,2.9-2.7,4c-1.1,1-2.4,1.8-3.9,2.4
		c-1.5,0.5-3,0.8-4.6,0.8c-2.3,0-4.5-0.4-6.4-1.3c-1.9-0.9-3.5-1.9-4.6-3.1l4.5-6.6c0.8,0.9,1.8,1.6,2.9,2.1
		c1.1,0.5,2.2,0.8,3.4,0.8c1.1,0,2-0.3,2.7-1c0.7-0.7,1.1-1.7,1.1-2.9c0-1.3-0.4-2.3-1.3-3c-0.9-0.8-2.2-1.5-3.9-2.4
		c-1.1-0.5-2.1-1.1-3-1.7c-0.9-0.6-1.8-1.4-2.5-2.3c-0.7-0.9-1.3-1.9-1.7-3.1c-0.4-1.2-0.6-2.6-0.6-4.2c0-2.2,0.4-4,1.1-5.6
		c0.7-1.6,1.6-2.8,2.8-3.8c1.2-1,2.4-1.7,3.8-2.2c1.4-0.5,2.8-0.7,4.3-0.7c2.1,0,4,0.3,5.7,1c1.7,0.7,3.1,1.6,4.2,2.8L429.7,273.4z"
		/>
	<polygon class="st0" points="447.7,264.1 447.7,303 467.1,303 467.1,295.1 456.1,295.1 456.1,286.7 465.6,286.7 465.6,279.5 
		456.1,279.5 456.1,271.9 466.5,271.9 466.5,264.1 	"/>
	<path class="st0" d="M501.2,302.5c-1.7,1-3.9,1.5-6.6,1.5c-2.3,0-4.3-0.5-6.2-1.5c-1.8-1-3.4-2.4-4.8-4.2c-1.3-1.8-2.3-4-3.1-6.5
		c-0.7-2.5-1.1-5.3-1.1-8.3c0-3,0.4-5.8,1.1-8.3c0.7-2.5,1.8-4.7,3.1-6.5c1.3-1.8,2.9-3.2,4.8-4.2c1.9-1,3.9-1.5,6.2-1.5
		c2.6,0,4.8,0.5,6.5,1.4c1.7,0.9,3.1,2.1,4.2,3.5l-4.7,6.4c-0.7-0.9-1.4-1.6-2.2-2.1c-0.8-0.5-1.9-0.8-3.1-0.8c-1.2,0-2.2,0.3-3,0.9
		c-0.9,0.6-1.6,1.5-2.2,2.6c-0.6,1.1-1.1,2.4-1.4,3.8c-0.3,1.5-0.4,3.1-0.4,4.7c0,1.7,0.1,3.3,0.4,4.7c0.3,1.5,0.7,2.7,1.4,3.8
		c0.6,1.1,1.3,2,2.2,2.6c0.9,0.6,1.9,0.9,3.1,0.9c1.2,0,2.2-0.3,3.1-0.9c0.9-0.6,1.6-1.3,2.1-2.1l4.9,6.1
		C504.3,300.2,502.9,301.5,501.2,302.5"/>
	<path class="st0" d="M544.1,294.6c-0.5,1.9-1.3,3.5-2.3,4.9c-1.1,1.4-2.4,2.5-4.1,3.3c-1.7,0.8-3.7,1.2-6.1,1.2
		c-2.4,0-4.4-0.4-6-1.2c-1.6-0.8-3-1.9-4-3.3c-1-1.4-1.8-3-2.3-4.9c-0.5-1.9-0.7-3.9-0.7-6v-24.4h8.8v23.7c0,1.1,0.1,2.1,0.2,3.1
		c0.1,0.9,0.4,1.8,0.7,2.4c0.3,0.7,0.8,1.2,1.3,1.6c0.5,0.4,1.3,0.6,2.1,0.6c0.9,0,1.6-0.2,2.1-0.6c0.5-0.4,1-0.9,1.3-1.6
		c0.3-0.7,0.6-1.5,0.7-2.4c0.1-1,0.2-2,0.2-3.1v-23.7h8.8v24.4C544.8,290.8,544.6,292.8,544.1,294.6"/>
	<path class="st0" d="M576.7,276.3c0-1-0.1-1.8-0.4-2.4c-0.3-0.6-0.6-1.1-1.1-1.5c-0.4-0.4-0.9-0.6-1.5-0.7
		c-0.5-0.1-1.1-0.2-1.6-0.2h-2.8v9.8h2.6c1.2,0,2.3-0.4,3.3-1.2C576.2,279.3,576.7,278.1,576.7,276.3 M577.2,303l-5.2-15.5h-2.6V303
		H561v-38.8h12.4c3.8,0,6.7,1,8.8,2.9c2.1,2,3.1,4.9,3.1,8.7c0,1.4-0.2,2.7-0.5,3.8c-0.3,1.1-0.8,2.1-1.3,2.9
		c-0.5,0.8-1.1,1.5-1.8,2c-0.7,0.5-1.3,0.9-1.9,1.1l6.6,17.3H577.2z"/>
	<rect x="601.7" y="264.1" class="st0" width="8.8" height="38.8"/>
	<polygon class="st0" points="623.8,264.1 623.8,271.6 631,271.6 631,303 639.6,303 639.6,271.6 646.7,271.6 646.7,264.1 	"/>
	<polygon class="st0" points="674.9,264.1 670.2,280.2 670.1,280.2 665.4,264.1 655.9,264.1 665.8,289 665.8,303 674.4,303 
		674.4,289 684.3,264.1 	"/>
	<polygon class="st0" points="312.4,185.7 272.6,185.7 272.6,240.7 223.8,240.7 223.8,95.9 272.4,95.9 272.4,145 312.2,145 
		312.2,95.9 361.2,95.9 361.2,240.7 312.4,240.7 	"/>
	<path class="st0" d="M465.8,244.8c-11.3,0-21.2-1.6-29.6-4.7c-8.4-3.1-15.4-7.4-21-12.9c-5.6-5.5-9.8-11.9-12.5-19.3
		c-2.7-7.4-4.1-15.4-4.1-24v-88h48.8v82.6c0,7,1.7,12.4,5,16.3c3.3,3.9,8.1,5.8,14.3,5.8c6.2,0,10.9-1.9,14.3-5.8
		c3.4-3.9,5-9.3,5-16.3V95.9h48.6v88c0,8.6-1.5,16.6-4.4,24c-2.9,7.4-7.3,13.9-13,19.3c-5.7,5.5-12.9,9.8-21.4,12.9
		C487.1,243.2,477.1,244.8,465.8,244.8"/>
	<path class="st0" d="M617.4,182.8v19.6h14.6c3.8,0,6.9-0.8,9.3-2.6c2.4-1.7,3.6-4.2,3.6-7.5c0-1.9-0.5-3.5-1.5-4.7
		c-1-1.2-2.3-2.2-3.8-3c-1.5-0.7-3.1-1.3-4.8-1.5c-1.7-0.3-3.3-0.4-4.8-0.4H617.4z M617.4,133.7v17.8h13.1c3.4,0,6.2-0.8,8.4-2.4
		c2.2-1.6,3.3-4,3.3-7.3c0-2.7-1.2-4.8-3.5-6.1c-2.3-1.4-5.4-2-9.2-2H617.4z M666.8,165.5c3.4,0.8,6.8,2.1,10.1,4
		c3.3,1.8,6.2,4.2,8.8,7c2.6,2.8,4.6,6,6.1,9.7c1.5,3.7,2.3,7.8,2.3,12.3c0,7.9-1.6,14.6-4.8,19.9c-3.2,5.4-7.5,9.8-12.7,13.1
		c-5.3,3.3-11.3,5.7-18,7.2c-6.8,1.4-13.7,2.1-20.8,2.1h-65.8V95.9h59.7c5.9,0,12.1,0.4,18.8,1.3c6.6,0.9,12.7,2.7,18.4,5.3
		c5.6,2.7,10.3,6.5,14,11.7c3.7,5.1,5.5,11.8,5.5,20.1c0,7.8-1.9,14.2-5.8,19.2c-3.9,5-9.1,8.8-15.5,11.3V165.5z"/>
	<path class="st0" d="M247.9,22.5v30.3h4.4c5.7,0,10-1.2,13-3.7c3-2.4,4.5-6.4,4.5-12c0-4.6-1.5-8.2-4.5-10.8
		c-3-2.6-7.1-3.9-12.1-3.9H247.9z M224.7,73.4V2.1h26.7c5.7,0,11.1,0.6,16.2,1.7c5.2,1.1,9.7,3,13.6,5.7c3.9,2.7,7.1,6.3,9.4,10.8
		c2.4,4.5,3.5,10.2,3.5,17c0,6.2-1.1,11.6-3.4,16.2c-2.3,4.6-5.3,8.3-9,11.2c-3.8,2.9-8.1,5.1-13,6.5c-4.9,1.4-10,2.1-15.3,2.1
		H224.7z"/>
	<rect x="311.4" y="2.1" class="st0" width="24.2" height="71.3"/>
	<path class="st0" d="M392.4,75.2c-5.7,0-10.9-0.9-15.7-2.6c-4.8-1.7-9-4.2-12.5-7.5c-3.5-3.3-6.3-7.2-8.3-11.8c-2-4.6-3-9.8-3-15.5
		c0-5.7,1-10.9,3-15.5c2-4.6,4.8-8.6,8.3-11.9c3.5-3.3,7.6-5.8,12.3-7.6c4.7-1.8,9.8-2.7,15.1-2.7c5.6,0,10.9,0.9,15.9,2.7
		s9.1,4.3,12.3,7.5l-14,16.8c-1.5-1.7-3.2-3.1-5.3-4.2c-2-1-4.5-1.6-7.5-1.6c-2,0-3.9,0.4-5.7,1.2c-1.9,0.8-3.5,1.9-4.9,3.3
		c-1.4,1.4-2.6,3.2-3.4,5.2c-0.9,2-1.3,4.3-1.3,6.8c0,5,1.3,9,3.9,12.1c2.6,3.1,6.7,4.7,12.5,4.7c1,0,2.1-0.1,3.1-0.3
		c1.1-0.2,1.9-0.4,2.5-0.8v-5.4h-11.5V29.3h32.8v39c-1.7,1-3.6,1.9-5.8,2.8c-2.2,0.8-4.5,1.6-7,2.2c-2.5,0.6-5,1.1-7.7,1.5
		C397.8,75.1,395.1,75.2,392.4,75.2"/>
	<rect x="442.1" y="2.1" class="st0" width="24.2" height="71.3"/>
	<polygon class="st0" points="482.7,2.1 482.7,22.4 500.3,22.4 500.3,73.4 524.4,73.4 524.4,22.4 541.9,22.4 541.9,2.1 	"/>
	<path class="st0" d="M584.7,27l5.7,17.6h-11.6L584.7,27z M572.2,2.1L544,73.4h25.4l3.5-10.5h22.7l3.7,10.5h26.2L597.8,2.1H572.2z"
		/>
	<polygon class="st0" points="637.8,2.1 637.8,73.4 685.7,73.4 685.7,52.8 662,52.8 662,2.1 	"/>
	<path class="st0" d="M152,67.3c-2.1,7.7-10.1,12.3-17.9,10.1c-7.7-2.1-12.3-10.1-10.2-17.8c2.1-7.7,10.1-12.3,17.9-10.1
		C149.6,51.6,154.1,59.6,152,67.3 M166.3,126c-0.6-1.5-0.5-3.1,0.3-4.5C207.2,52.5,156.1,0.6,155.5,0l0,0l0,0l0,0l0,0
		c-0.8,0.2-71.4,18.7-71.8,98.7c0,1.6-0.8,3.1-2.1,4l-28.5,17.7c-1.4,1-2.1,2.6-2.1,4.2l3.9,39.6c0.1,2.2,1.6,4,3.7,4.6l8.7,2.4
		c2.1,0.6,5.5-2,5.5-2l28.2-17c0,0,0,0,0,0l0,0c0,0,0,0,0,0c0.5,0.5,4,4.2,10,6c0,0,0,0,0,0c0.2,0.1,0.4,0.1,0.6,0.2
		c0.2,0.1,0.4,0.1,0.6,0.2c0,0,0,0,0,0c6.1,1.5,11,0.1,11.7-0.1c0,0,0,0,0.1,0l0,0c0,0,0,0,0,0l15.6,29c0,0,1.6,4,3.7,4.5l8.7,2.4
		c2.1,0.6,4.3-0.3,5.5-2.1l23.7-32c0.9-1.4,1.1-3.2,0.4-4.7L166.3,126z"/>
	<polygon class="st0" points="0,303 30.2,303 82.7,190 	"/>
	<polygon class="st0" points="48.6,303 78.4,303 101.2,191.2 	"/>
	<polygon class="st0" points="96.5,303 125.2,303 119.4,195.1 	"/>
</g>
</svg>
