<?xml version="1.0" encoding="UTF-8"?>
<!DOCTYPE svg PUBLIC "-//W3C//DTD SVG 1.0//EN" "http://www.w3.org/TR/2001/REC-SVG-20010904/DTD/svg10.dtd">
<!-- Creator: CorelDRAW -->
<svg xmlns="http://www.w3.org/2000/svg" xml:space="preserve" width="182px" height="40px" version="1.0" shape-rendering="geometricPrecision" text-rendering="geometricPrecision" image-rendering="optimizeQuality" fill-rule="evenodd" clip-rule="evenodd"
viewBox="0 0 184.1 40.33"
 xmlns:xlink="http://www.w3.org/1999/xlink"
 xmlns:xodm="http://www.corel.com/coreldraw/odm/2003">
 <g id="Ebene_x0020_1">
  <metadata id="CorelCorpID_0Corel-Layer"/>
  <path fill="#437AF9" fill-rule="nonzero" d="M53.04 21.25l-2.8 0 -1.35 6.72 -4.22 0 3.64 -18.12 6.59 0c2.93,0 5.01,1.88 5.01,5.04 0,3.13 -2.34,6.36 -6.87,6.36zm1.12 -7.66l0 0 -2.37 0 -0.78 3.92 2.21 0c1.91,0 2.44,-1.58 2.44,-2.24 0,-0.94 -0.4,-1.68 -1.5,-1.68z"/>
  <path fill="#437AF9" fill-rule="nonzero" d="M68.36 27.97l-0.25 -2.85 -5.37 0 -1.4 2.85 -4.51 0 9.88 -18.12 3.28 0 2.67 18.12 -4.3 0zm-1.14 -11.63l0 0 -2.75 5.34 3.31 0 -0.56 -5.34z"/>
  <polygon fill="#437AF9" fill-rule="nonzero" points="86.9,13.59 82.75,13.59 79.88,27.97 75.65,27.97 78.53,13.59 74.2,13.59 74.96,9.85 87.66,9.85 "/>
  <path fill="#437AF9" fill-rule="nonzero" d="M96.66 14.56c-0.61,-0.92 -1.22,-1.15 -1.86,-1.15 -0.79,0 -1.32,0.28 -1.75,0.77 -0.61,0.68 -0.94,1.52 -1.61,4.73 -0.2,1.04 -0.48,2.62 -0.48,3.56 0,1.05 0.46,1.94 1.83,1.94 1.12,0 1.84,-0.64 2.24,-1.15l2.42 2.98c-0.99,0.97 -2.57,1.88 -4.81,1.88 -4.12,0 -5.95,-2.72 -5.95,-5.34 0,-0.99 0.2,-2.27 0.53,-3.87 0.79,-4.02 1.22,-5.62 2.72,-7.13 1.53,-1.52 3.49,-2.08 5.27,-2.08 2.52,0 3.79,1.12 4.61,2.19l-3.16 2.67z"/>
  <polygon fill="#437AF9" fill-rule="nonzero" points="111.72,27.97 107.5,27.97 108.97,20.67 104.47,20.67 102.99,27.97 98.77,27.97 102.41,9.85 106.63,9.85 105.23,16.93 109.74,16.93 111.14,9.85 115.36,9.85 "/>
  <path fill="#000F95" fill-rule="nonzero" d="M126.28 21.25l-2.8 0 -1.35 6.72 -4.22 0 3.64 -18.12 6.59 0c2.92,0 5.01,1.88 5.01,5.04 0,3.13 -2.34,6.36 -6.87,6.36zm1.12 -7.66l0 0 -2.37 0 -0.79 3.92 2.22 0c1.91,0 2.44,-1.58 2.44,-2.24 0,-0.94 -0.41,-1.68 -1.5,-1.68z"/>
  <polygon fill="#000F95" fill-rule="nonzero" points="137.4,27.97 133.18,27.97 136.81,9.85 141.04,9.85 "/>
  <polygon fill="#000F95" fill-rule="nonzero" points="152.48,27.97 140.88,27.97 144.52,9.85 148.74,9.85 145.86,24.25 153.22,24.25 "/>
  <path fill="#000F95" fill-rule="nonzero" d="M168.47 18.91c-0.64,3.16 -1.12,5.45 -2.8,7.13 -1.43,1.42 -3.46,2.08 -5.14,2.08 -3.74,0 -5.7,-2.57 -5.7,-5.29 0,-0.82 0.17,-2.16 0.53,-3.92 0.64,-3.16 1.12,-5.45 2.8,-7.13 1.43,-1.42 3.46,-2.08 5.14,-2.08 3.74,0 5.7,2.57 5.7,5.29 0,0.82 -0.18,2.16 -0.53,3.92zm-5.53 -5.5l0 0c-0.71,0 -1.37,0.36 -1.83,0.87 -0.56,0.61 -0.89,1.55 -1.52,4.63 -0.21,1.04 -0.49,2.62 -0.49,3.56 0,1.25 0.77,1.94 1.78,1.94 0.72,0 1.38,-0.36 1.84,-0.87 0.56,-0.61 0.89,-1.55 1.52,-4.63 0.21,-1.04 0.49,-2.62 0.49,-3.56 0,-1.25 -0.77,-1.94 -1.79,-1.94z"/>
  <polygon fill="#000F95" fill-rule="nonzero" points="183.34,13.59 179.19,13.59 176.31,27.97 172.09,27.97 174.96,13.59 170.64,13.59 171.4,9.85 184.1,9.85 "/>
  <path fill="#000F95" fill-rule="nonzero" d="M14.85 40.33l-0.25 -0.08c-0.15,-0.04 -3.65,-1.11 -7.21,-3.37 -4.83,-3.07 -7.39,-6.89 -7.39,-11.04l0 -25.84 29.71 0 0 12.67 -1.75 0 0 -10.92 -26.21 0 0 24.09c0,7.95 11.26,12.04 13.1,12.65 1.84,-0.61 13.11,-4.7 13.11,-12.65l0 -0.17 1.75 0 0 0.17c0,4.15 -2.56,7.97 -7.4,11.04 -3.55,2.26 -7.06,3.33 -7.21,3.37l-0.25 0.08z"/>
  <polygon fill="#437AF8" fill-rule="nonzero" points="9.92,25.69 6.81,22.59 19.79,9.61 22.9,12.71 "/>
  <polygon fill="#437AF8" fill-rule="nonzero" points="14.13,20.03 6.81,12.71 9.92,9.61 17.24,16.92 "/>
  <polygon fill="#000F95" fill-rule="nonzero" points="22.2,28.1 16.22,22.12 18.91,19.44 22.2,22.74 29.6,15.33 32.29,18.02 "/>
  <polygon fill="#000F95" fill-rule="nonzero" points="15.73,38.82 13.98,38.82 13.98,32.96 15.73,32.96 "/>
  <polygon fill="#000F95" fill-rule="nonzero" points="15.73,6.61 13.98,6.61 13.98,0.88 15.73,0.88 "/>
 </g>
</svg>
