<?xml version="1.0" encoding="UTF-8"?>
<!DOCTYPE svg PUBLIC "-//W3C//DTD SVG 1.0//EN" "http://www.w3.org/TR/2001/REC-SVG-20010904/DTD/svg10.dtd">
<!-- Creator: CorelDRAW -->
<svg xmlns="http://www.w3.org/2000/svg" xml:space="preserve" width="128px" height="128px" version="1.0" shape-rendering="geometricPrecision" text-rendering="geometricPrecision" image-rendering="optimizeQuality" fill-rule="evenodd" clip-rule="evenodd"
viewBox="0 0 91.78 91.78"
 xmlns:xlink="http://www.w3.org/1999/xlink"
 xmlns:xodm="http://www.corel.com/coreldraw/odm/2003">
 <g id="Ebene_x0020_1">
  <metadata id="CorelCorpID_0Corel-Layer"/>
  <rect fill="none" width="91.78" height="91.78"/>
  <path fill="#000066" d="M37.79 39.52l-2.04 20.44 24.26 0 -2.26 -20.54c-0.08,-0.81 -0.26,-1.91 -0.77,-2.54 -0.56,-0.69 -1.25,-0.99 -2.24,-0.98l-13.71 0.05c-0.38,0 -1.64,0.25 -2.4,1.01 -0.6,0.61 -0.75,1.61 -0.84,2.56zm18.12 17.18l-1.86 -16.41c-0.07,-0.58 -0.82,-2.18 -2.01,-2.04 -0.8,0.09 -1.83,0.48 -1.68,2l1.65 16.34c0.19,1.93 1.19,2.18 2.28,2.09 1.07,-0.09 1.72,-1.13 1.62,-1.98zm-24.7 3.33l-3.79 0 0 4.73 -4.73 0 0 4.73 49.22 0 0 -4.73 -4.73 0 0 -4.73 -3.56 -0.07 -2.39 -20.73c-0.1,-0.85 -0.16,-2.12 -0.58,-3.32 -0.54,-1.56 -1.2,-2.59 -2.69,-3.33 -1.28,-0.65 -3.03,-0.89 -4.11,-0.9l-13.67 -0.05c-1.54,0 -3.54,0.61 -5.01,2.32 -1.21,1.41 -1.7,4.12 -1.76,5.05 -0.32,4.91 -1.82,16.33 -2.2,21.03zm15.08 -33.43l2.17 0c0.38,0 0.81,-0.42 0.8,-0.8l-0.07 -7.51c0,-0.51 -0.37,-1.24 -0.88,-1.24l-1.94 0c-0.45,0 -0.96,0.48 -0.96,0.93l0 7.59c0,0.46 0.43,1.03 0.88,1.03zm20.06 17.67l0 2.17c0,0.38 0.42,0.8 0.8,0.8l7.51 -0.07c0.51,0 1.25,-0.37 1.25,-0.88l0 -1.94c0,-0.45 -0.49,-0.96 -0.94,-0.96l-7.59 0c-0.45,0 -1.03,0.43 -1.03,0.88zm-46.6 0.67l0 2.17c0,0.38 0.42,0.81 0.8,0.8l7.51 -0.07c0.51,0 1.25,-0.37 1.25,-0.88l0 -1.94c0,-0.45 -0.49,-0.96 -0.94,-0.96l-7.59 0c-0.45,0 -1.03,0.43 -1.03,0.88zm42.22 -15.72l1.7 1.35c0.29,0.23 0.89,0.16 1.12,-0.13l4.6 -5.94c0.31,-0.41 0.48,-1.21 0.08,-1.53l-1.52 -1.2c-0.35,-0.28 -1.06,-0.21 -1.34,0.14l-4.7 5.95c-0.28,0.36 -0.3,1.08 0.06,1.36zm-30.72 1.59l1.59 -1.47c0.27,-0.26 0.3,-0.85 0.05,-1.13l-5.16 -5.47c-0.35,-0.37 -1.12,-0.66 -1.49,-0.31l-1.42 1.31c-0.33,0.31 -0.38,1.02 -0.08,1.35l5.16 5.57c0.3,0.33 1.01,0.46 1.35,0.15z"/>
 </g>
</svg>
