<?xml version="1.0" encoding="UTF-8"?>
<!DOCTYPE svg PUBLIC "-//W3C//DTD SVG 1.0//EN" "http://www.w3.org/TR/2001/REC-SVG-20010904/DTD/svg10.dtd">
<!-- Creator: CorelDRAW -->
<svg xmlns="http://www.w3.org/2000/svg" xml:space="preserve" width="128px" height="128px" version="1.0" shape-rendering="geometricPrecision" text-rendering="geometricPrecision" image-rendering="optimizeQuality" fill-rule="evenodd" clip-rule="evenodd"
viewBox="0 0 35.12 35.12"
 xmlns:xlink="http://www.w3.org/1999/xlink"
 xmlns:xodm="http://www.corel.com/coreldraw/odm/2003">
 <g id="Ebene_x0020_1">
  <metadata id="CorelCorpID_0Corel-Layer"/>
  <rect fill="none" width="35.12" height="35.12"/>
  <path fill="#000066" d="M18.43 23.53c-3.09,0.14 -5.66,0.16 -8.25,-0.29 -1.71,-0.29 -3.43,-0.78 -5.32,-1.57 -0.49,-0.21 -1.11,0.34 -1.07,0.93 0.05,0.84 0.84,1.23 1.4,1.52 0.64,0.32 1.71,0.95 2.48,1.19l-0.39 2.27c-0.03,0.22 0.15,0.85 0.49,0.91 0.39,0.07 0.97,-0.44 1.06,-0.77l0.54 -2.06c1.56,0.34 4.95,0.71 6.37,0.71 2.21,0.01 3.7,-0.13 6.54,-0.64l0.44 1.71c0.09,0.35 0.65,0.57 1.11,0.44 0.34,-0.09 0.68,-0.39 0.62,-0.98l-0.17 -1.62c0.86,-0.12 2.13,-1 2.75,-1.05 1.84,-0.16 1.88,0.4 2.52,0.07 0.72,-0.37 2.21,-1.39 1.58,-2.86 -0.76,-1.76 -1.53,-2.24 -3.17,-1.95 -1.18,0.22 -2.07,1.58 -4.01,2.64 -1.43,0.79 -3.34,1.3 -5.52,1.4zm-12.83 -2.8c2.73,1.37 6.47,2.11 10.11,2.02 4.11,-0.1 8.02,-1.19 8.91,-2.38 -0.4,-3.14 -2.67,-6.56 -5.09,-8.27 -2.63,-1.86 -6.36,-1.71 -9.19,0.13 -2.22,1.45 -4.02,4.16 -4.74,8.5zm1.52 -0.68c2.22,1.11 5.27,1.69 8.23,1.62 3.36,-0.08 6.88,-0.74 7.92,-1.74 -0.47,-2.53 -2.66,-5.62 -4.63,-7.02 -2.14,-1.51 -5.35,-1.29 -7.66,0.21 -1.81,1.18 -3.28,3.39 -3.86,6.93z"/>
 </g>
</svg>
