<?xml version="1.0" encoding="UTF-8"?>
<!DOCTYPE svg PUBLIC "-//W3C//DTD SVG 1.0//EN" "http://www.w3.org/TR/2001/REC-SVG-20010904/DTD/svg10.dtd">
<!-- Creator: CorelDRAW -->
<svg xmlns="http://www.w3.org/2000/svg" xml:space="preserve" width="128px" height="128px" version="1.0" shape-rendering="geometricPrecision" text-rendering="geometricPrecision" image-rendering="optimizeQuality" fill-rule="evenodd" clip-rule="evenodd"
viewBox="0 0 21.72 21.72"
 xmlns:xlink="http://www.w3.org/1999/xlink"
 xmlns:xodm="http://www.corel.com/coreldraw/odm/2003">
 <g id="Ebene_x0020_1">
  <metadata id="CorelCorpID_0Corel-Layer"/>
  <rect fill="none" width="21.72" height="21.72"/>
  <path fill="#000066" d="M12.66 4.96c0,1.22 1.32,1.67 2.12,1.33 0.59,-0.25 0.8,-0.66 0.8,-1.33 0,-0.66 -0.3,-1.11 -0.88,-1.35 -0.81,-0.35 -2.04,0.14 -2.04,1.35zm-1.2 2.64c-0.91,1.71 -1.88,3.63 -2.78,5.32l-3.05 -0.02c-0.25,0 -0.57,0.26 -0.67,0.65 -0.08,0.3 0.07,0.86 0.64,0.87l3.35 0.1c0.94,0 0.8,-0.81 1.86,-2.39l1.8 1.64 -0.21 3.13c0,1.1 1.59,1.44 1.59,-0.53l0.1 -2.72c0.01,-0.39 -0.21,-0.64 -0.49,-0.91l-1.2 -1.14 1.32 -2.92 1.35 0.74c0.55,0.3 0.77,0.22 1.14,-0.26l1.48 -1.9c0.24,-0.31 0.04,-0.61 -0.2,-0.78 -0.27,-0.18 -0.76,0.05 -0.92,0.24l-0.99 1.16c-1.21,-0.81 -1.7,-1.39 -2.27,-1.45l-2.55 -0.23c-0.53,-0.05 -0.84,0.18 -1.12,0.64l-1.41 2.33c-0.11,0.18 -0.08,0.37 0,0.49 0.13,0.21 0.79,0.46 1.07,0l1.15 -1.83c0.5,-0.55 0.4,-0.23 1.01,-0.23zm-3.9 1.53c-0.9,0.37 -1.68,-0.08 -2.78,-0.12 -1.1,-0.04 -1.64,0.56 -1.86,1.15 -0.42,1.16 0.48,2.65 1.96,2.47 0.63,-0.08 1.28,-0.54 1.52,-0.88 0.24,-0.34 0.29,-0.83 0.69,-1.3 0.4,-0.47 0.79,-0.62 0.79,-0.62l-0.32 -0.7z"/>
 </g>
</svg>
